<svg width="28" height="28" viewBox="0 0 33 33" fill="green" stroke="#0B6623" strokeWidth="1" xmlns="http://www.w3.org/2000/svg">
  <path d="M16.0566 0.250923C9.27798 0.250923 3.76318 5.76572 3.76318 12.5444C3.76318 15.8372 5.75817 20.0659 9.6927 25.1124C11.4953 27.4185 13.4474 29.6037 15.5364 31.6539C15.6765 31.7878 15.8628 31.8626 16.0566 31.8626C16.2504 31.8626 16.4368 31.7878 16.5768 31.6539C18.6658 29.6037 20.618 27.4185 22.4205 25.1124C26.3551 20.0659 28.3501 15.8372 28.3501 12.5444C28.3501 5.76572 22.8353 0.250923 16.0566 0.250923Z"/>
     <path transform="scale(1.35) translate(-4, -3)" stroke="green" d="M22.0824 11.4857L16.5629 6.46793C16.4244 6.34199 16.2439 6.2722 16.0566 6.2722C15.8694 6.2722 15.6889 6.34199 15.5503 6.46793L10.0308 11.4857C9.90224 11.6026 9.81806 11.7604 9.79257 11.9323C9.76708 12.1043 9.80184 12.2797 9.89096 12.4289C9.96128 12.5425 10.0598 12.636 10.177 12.7002C10.2942 12.7644 10.426 12.7971 10.5596 12.7952H11.2898V17.5621C11.2898 17.7617 11.3691 17.9531 11.5102 18.0943C11.6514 18.2354 11.8428 18.3147 12.0424 18.3147H13.7986C13.9983 18.3147 14.1897 18.2354 14.3309 18.0943C14.472 17.9531 14.5513 17.7617 14.5513 17.5621V14.8023C14.5513 14.6027 14.6306 14.4113 14.7718 14.2701C14.9129 14.129 15.1043 14.0497 15.304 14.0497H16.8093C17.0089 14.0497 17.2003 14.129 17.3415 14.2701C17.4826 14.4113 17.5619 14.6027 17.5619 14.8023V17.5621C17.5619 17.7617 17.6412 17.9531 17.7824 18.0943C17.9235 18.2354 18.115 18.3147 18.3146 18.3147H20.0708C20.2704 18.3147 20.4619 18.2354 20.603 18.0943C20.7442 17.9531 20.8235 17.7617 20.8235 17.5621V12.7952H21.5537C21.6873 12.7971 21.8191 12.7644 21.9362 12.7002C22.0534 12.636 22.152 12.5425 22.2223 12.4289C22.3114 12.2797 22.3462 12.1043 22.3207 11.9323C22.2952 11.7604 22.211 11.6026 22.0824 11.4857Z" fill="white"/>
</svg>
